<?xml version="1.0" encoding="utf-8"?>
<!-- Generator: Adobe Illustrator 28.0.0, SVG Export Plug-In . SVG Version: 6.00 Build 0)  -->
<svg version="1.1" id="Layer_1" xmlns="http://www.w3.org/2000/svg" xmlns:xlink="http://www.w3.org/1999/xlink" x="0px" y="0px"
	 viewBox="0 0 1683.78 2383.94" style="enable-background:new 0 0 1683.78 2383.94;" xml:space="preserve">
<style type="text/css">
	.st0{fill:#FFFFFF;}
</style>
<rect x="-10.75" y="1193.17" width="1695.29" height="1118.17"/>
<path d="M986.75,756.57c22.31-44.6,76.96-60.09,120.05-32.82c22.86-24.06,50.66-34.17,83.3-25.6c32.4,8.5,51.72,30.66,60,62.9
	c29.65-11,55.29-6.19,74.76,19.54c14.66,19.37,15.31,46.46,1.52,66.32c-18.97,27.3-44.97,33.04-75.62,22.08
	c-7.53,33.8-26.86,57.23-60.64,66.06c-33.76,8.82-62.12-2.07-85.25-27.96c-20.97,12.4-43.16,15.92-66.52,9.18
	c-23.39-6.75-40.14-21.76-51.42-43.36c-21.08,3.88-39.75-0.68-55.17-15.64c-12.26-11.89-17.87-26.63-17.89-43.75
	C913.81,783.06,942.14,748.58,986.75,756.57z"/>
<path d="M501.22,741.62c16.58-34.43,43.19-53.63,81.38-52.11c37,1.47,61.73,21.94,75.85,55.93c31.84-3.3,53.85,9.84,65.85,39.72
	c1.67,0,3.4,0.13,5.11-0.02c29.47-2.6,55.96,17.03,61.3,45.46c5.48,29.14-11.5,57.12-40.03,65.43c-5.29,1.54-10.96,2.22-16.48,2.44
	c-9.58,0.38-19.19,0.1-28.79,0.09c-2.08,0-4.16,0-5.8,0c-3.4,4.02-6.22,7.81-9.5,11.16c-29.14,29.68-77.37,26.84-102.63-6.18
	c-2.87-3.75-5.74-5.15-10.36-5.07c-14.83,0.27-29.67,0.21-44.5,0.03c-3.55-0.04-6.23,1-9,3.14
	c-53.24,41.06-130.67,14.14-147.12-51.09C363.02,797.1,400.06,742.85,454.58,736c14.66-1.84,28.87-0.37,42.8,4.37
	C498.52,740.76,499.68,741.12,501.22,741.62z"/>
<path d="M228.12,202.19c0.69-3.93,1.17-7.74,2.05-11.46c9.34-39.23,53.66-58.35,88.53-38.17c5.51,3.19,5.32,3.95,9.98-1.8
	c22.53-27.84,51.75-39.09,86.51-30.66c35.18,8.52,56.1,32.15,63.37,67.68c0.17,0.85,0.31,1.71,0.48,2.57
	c0.03,0.16,0.16,0.3,0.48,0.86c2.76,0.39,5.83,0.75,8.88,1.25c22.75,3.74,40.44,20.43,45.49,42.91c1.22,5.41,1.22,5.41,6.76,5.54
	c31.7,0.74,56.09,27.22,54.24,58.88c-1.15,19.61-18.08,36.93-37.8,38.63c-2.08,0.18-4.18,0.2-6.28,0.2
	c-108.9,0-217.8-0.01-326.7,0.02c-6.36,0-12.51-0.71-18.41-3.23c-9.34-3.98-16.35-10.47-21.23-19.37
	c-22.74-41.46-4.73-93.33,38.85-111.83C224.93,203.53,226.53,202.86,228.12,202.19z"/>
<path d="M1190.26,578.78c-37.18-3.31-58.56-34.52-53.8-66.29c4.04-26.96,30.86-55.16,71.99-46c21.68-24.64,54.53-33.81,87.99-20.36
	c8.37-9.71,18.98-15.37,32.24-15.11c13.06,0.26,23.44,5.94,31.77,16.43c24.95-10.02,49.7-10.01,73.46,3.35
	c23.76,13.36,37.01,34.23,41.22,61.3c2.38,0.28,4.61,0.57,6.84,0.8c28.86,2.91,51.68,26.63,53.36,54.85
	c1.82,30.56-18.7,56.31-47.1,62.42c-10.66,2.29-21.19,1.56-31.45-2.02c-2.96-1.03-5.01-0.83-7.56,1.19
	c-27.4,21.69-62.26,22.63-90.81,2.62c-1.13-0.79-2.26-1.58-3.35-2.34c-21.45,21-54.11,15.3-67.4-11.99
	c-18.3,13.71-38.4,17.97-59.93,9.43C1206.15,618.49,1194.26,601.73,1190.26,578.78z"/>
<path d="M1498.87,238.03c2.27,1.05,4.35,1.94,6.37,2.94c28.97,14.35,38.71,50.78,20.9,77.74c-5.97,9.04-14.09,13.46-25.01,13.45
	c-93.19-0.08-186.39-0.05-279.58-0.05c-18.85,0-37.7-0.11-56.54,0.04c-10.7,0.09-18.72-4.28-24.68-13.08
	c-21.35-31.52-3.77-74.9,33.53-82.54c2.02-0.41,4.04-0.83,6.39-1.31c0-2,0.03-3.89,0-5.77c-0.69-43.88,34.58-78.3,78.43-76.45
	c7.18,0.3,14.17,1.77,20.98,4.12c4.16,1.43,4.23,1.4,6.95-2.08c11.11-14.23,25.26-23.9,42.77-28.44
	c40.02-10.35,80.78,11.53,94.36,50.58c0.11,0.33,0.24,0.65,0.36,0.98c1.86,5.51,1.91,5.64,7.84,4.74
	c7.03-1.06,13.98-0.58,20.75,1.26c24.72,6.7,39.79,22.64,45.08,47.75C1498.14,233.81,1498.44,235.7,1498.87,238.03z"/>
<path d="M951.39,490.95c19.98-5.36,39.23-4.13,57.56,5.48c14.85,7.79,25.92,19.33,33.16,34.47c14.49,30.3,7.07,66.54-17.94,88.95
	c-24.11,21.61-64.46,28.05-98.15,2.57c-16.37,21.75-38.76,31.72-65.52,32.1c-26.55,0.38-49.12-8.88-66.59-29.97
	c-18.26,12.59-38.18,17.17-59.8,12.95c-15.7-3.06-29.06-10.65-40.04-22.3c-22.02-23.34-26.94-58.08-12.18-86.49
	c8.08-15.56,20.19-27.02,36.15-34.29c15.79-7.19,32.25-8.23,49.12-4.6c18.63-45.72,51.59-70.7,101.66-66.39
	C910.34,427.01,936.85,451.85,951.39,490.95z"/>
<path d="M732.6,219.81c8.49-26.01,33.09-44.78,65.6-39.94c14.94-35.39,40.85-56.42,80.14-56.1c39.06,0.32,64.6,21.55,79.19,57.24
	c2.72-0.38,5.46-0.75,8.19-1.14c45.02-6.35,85.7,28.32,87.1,73.74c1.15,37.09-25.02,71.5-64.22,78.15
	c-4.45,0.76-9.03,1.08-13.55,1.08c-83.77,0.06-167.55,0.08-251.32,0.03c-21.51-0.01-38.58-8.8-50.15-27.08
	c-21.62-34.15-0.42-80.12,39.5-85.97c3.27-0.48,6.59-0.76,9.89-0.77C726.08,219.04,729.18,219.52,732.6,219.81z"/>
<path d="M549.4,551.34c4.53,0.51,8.86,0.72,13.09,1.51c22.28,4.16,38.38,24.15,37.82,46.75c-0.31,12.26-10.05,22.11-22.35,22.59
	c-1.22,0.05-2.44,0.03-3.66,0.03c-124.25,0-248.49,0.01-372.74-0.04c-3.45,0-7.04-0.12-10.34-1.03
	c-10.83-2.97-17.65-12.9-16.98-24.07c1.48-24.67,19.31-42.94,44.04-45.14c0.68-0.06,1.36-0.16,2.46-0.29
	c0.35-2.16,0.72-4.34,1.05-6.52c4.05-27.57,30.76-45.53,57.79-38.85c0.85,0.21,1.68,0.48,2.53,0.68c3.98,0.96,4.58,0.5,5.04-3.41
	c0.39-3.28,0.64-6.62,1.43-9.81c6.58-26.49,33.69-41.69,59.79-33.62c1,0.31,2,0.62,2.97,1.02c1.78,0.74,3.02,0.07,3.99-1.41
	c0.57-0.88,1.12-1.77,1.72-2.63c18.65-26.86,57.49-27.43,76.87-1.12c0.21,0.28,0.42,0.56,0.62,0.84c3.03,4.2,3.03,4.2,8.03,2.87
	c26.53-7.06,52.88,8.9,58.68,35.58c0.41,1.87,0.58,3.79,0.76,5.7c0.23,2.4,1.24,3.79,3.86,4.03c2.59,0.23,5.19,0.72,7.72,1.35
	c19.77,5,33.56,21.33,35.43,41.86C549.08,549.21,549.25,550.21,549.4,551.34z"/>
<path class="st0" d="M970.39,1951.03c22.31-44.6,76.96-60.09,120.05-32.82c22.86-24.06,50.66-34.17,83.3-25.6
	c32.4,8.5,51.72,30.66,60,62.9c29.65-11,55.29-6.19,74.76,19.54c14.66,19.37,15.31,46.46,1.52,66.32
	c-18.97,27.3-44.97,33.04-75.62,22.08c-7.53,33.8-26.86,57.24-60.64,66.06c-33.76,8.82-62.12-2.07-85.25-27.96
	c-20.97,12.4-43.16,15.92-66.52,9.18c-23.39-6.75-40.14-21.76-51.42-43.36c-21.08,3.88-39.75-0.68-55.17-15.64
	c-12.26-11.89-17.87-26.63-17.89-43.75C897.45,1977.52,925.78,1943.04,970.39,1951.03z"/>
<path class="st0" d="M484.86,1936.08c16.58-34.43,43.19-53.63,81.38-52.11c37,1.47,61.73,21.94,75.85,55.93
	c31.84-3.3,53.85,9.84,65.85,39.72c1.67,0,3.4,0.13,5.11-0.02c29.47-2.6,55.96,17.03,61.3,45.46c5.48,29.14-11.5,57.12-40.03,65.43
	c-5.29,1.54-10.96,2.22-16.48,2.44c-9.58,0.38-19.19,0.1-28.79,0.09c-2.08,0-4.16,0-5.8,0c-3.4,4.02-6.22,7.81-9.5,11.16
	c-29.14,29.68-77.37,26.84-102.63-6.18c-2.87-3.75-5.74-5.15-10.36-5.07c-14.83,0.27-29.67,0.21-44.5,0.03c-3.55-0.04-6.23,1-9,3.14
	c-53.24,41.06-130.67,14.14-147.12-51.09c-13.48-53.45,23.56-107.71,78.07-114.56c14.66-1.84,28.87-0.37,42.8,4.37
	C482.16,1935.22,483.31,1935.58,484.86,1936.08z"/>
<path class="st0" d="M211.76,1396.65c0.7-3.93,1.17-7.74,2.05-11.46c9.34-39.23,53.66-58.35,88.53-38.17
	c5.51,3.19,5.32,3.95,9.98-1.8c22.53-27.84,51.75-39.09,86.51-30.66c35.18,8.52,56.1,32.15,63.37,67.68
	c0.17,0.85,0.31,1.71,0.48,2.57c0.03,0.16,0.16,0.3,0.48,0.86c2.76,0.39,5.83,0.75,8.88,1.25c22.75,3.74,40.44,20.43,45.49,42.91
	c1.22,5.41,1.22,5.41,6.76,5.54c31.7,0.74,56.09,27.22,54.24,58.88c-1.15,19.61-18.08,36.93-37.8,38.63
	c-2.08,0.18-4.18,0.2-6.28,0.2c-108.9,0-217.8-0.01-326.7,0.02c-6.36,0-12.51-0.71-18.41-3.23c-9.34-3.98-16.35-10.47-21.23-19.37
	c-22.74-41.46-4.73-93.33,38.85-111.83C208.57,1397.99,210.17,1397.32,211.76,1396.65z"/>
<path class="st0" d="M1173.9,1773.24c-37.18-3.31-58.56-34.52-53.8-66.29c4.04-26.96,30.86-55.16,71.99-46
	c21.68-24.64,54.53-33.81,87.99-20.36c8.37-9.71,18.98-15.37,32.24-15.11c13.06,0.26,23.44,5.94,31.77,16.44
	c24.95-10.02,49.7-10.01,73.46,3.35c23.76,13.36,37.01,34.23,41.22,61.3c2.38,0.28,4.61,0.57,6.84,0.8
	c28.86,2.91,51.68,26.63,53.36,54.85c1.82,30.56-18.7,56.31-47.1,62.42c-10.66,2.29-21.19,1.56-31.45-2.02
	c-2.96-1.03-5.01-0.83-7.56,1.19c-27.4,21.69-62.26,22.63-90.81,2.62c-1.13-0.79-2.26-1.58-3.35-2.34
	c-21.45,21-54.11,15.3-67.4-11.99c-18.3,13.71-38.4,17.97-59.93,9.43C1189.79,1812.95,1177.9,1796.19,1173.9,1773.24z"/>
<path class="st0" d="M1482.5,1432.49c2.27,1.05,4.35,1.94,6.37,2.94c28.97,14.35,38.71,50.78,20.9,77.74
	c-5.97,9.04-14.09,13.46-25.01,13.45c-93.19-0.08-186.39-0.05-279.58-0.05c-18.85,0-37.7-0.11-56.54,0.04
	c-10.7,0.09-18.72-4.28-24.68-13.08c-21.35-31.52-3.77-74.9,33.53-82.54c2.02-0.41,4.04-0.83,6.39-1.31c0-2,0.03-3.89,0-5.77
	c-0.69-43.88,34.58-78.3,78.43-76.45c7.18,0.3,14.17,1.77,20.98,4.11c4.16,1.43,4.23,1.4,6.95-2.08
	c11.11-14.23,25.26-23.9,42.77-28.44c40.02-10.35,80.78,11.53,94.36,50.58c0.11,0.33,0.24,0.65,0.36,0.98
	c1.86,5.51,1.91,5.64,7.84,4.74c7.03-1.06,13.98-0.58,20.75,1.26c24.72,6.7,39.79,22.64,45.08,47.75
	C1481.78,1428.27,1482.08,1430.16,1482.5,1432.49z"/>
<path class="st0" d="M935.03,1685.41c19.98-5.36,39.23-4.13,57.56,5.48c14.85,7.79,25.92,19.33,33.16,34.47
	c14.49,30.3,7.07,66.54-17.94,88.95c-24.11,21.61-64.46,28.05-98.15,2.57c-16.37,21.75-38.76,31.72-65.52,32.1
	c-26.55,0.38-49.12-8.88-66.59-29.97c-18.26,12.59-38.18,17.17-59.8,12.95c-15.7-3.06-29.06-10.65-40.04-22.3
	c-22.02-23.34-26.94-58.08-12.18-86.49c8.08-15.56,20.19-27.02,36.15-34.29c15.79-7.19,32.25-8.23,49.12-4.6
	c18.63-45.72,51.59-70.7,101.66-66.39C893.98,1621.47,920.49,1646.31,935.03,1685.41z"/>
<path class="st0" d="M716.24,1414.27c8.49-26.01,33.09-44.78,65.6-39.94c14.94-35.39,40.85-56.42,80.14-56.1
	c39.06,0.32,64.6,21.55,79.19,57.23c2.72-0.38,5.46-0.75,8.19-1.14c45.02-6.35,85.7,28.32,87.1,73.74
	c1.15,37.09-25.02,71.5-64.22,78.15c-4.45,0.76-9.03,1.08-13.55,1.08c-83.77,0.06-167.55,0.08-251.32,0.03
	c-21.51-0.01-38.58-8.8-50.15-27.08c-21.62-34.15-0.42-80.12,39.5-85.97c3.27-0.48,6.59-0.76,9.89-0.77
	C709.72,1413.5,712.82,1413.98,716.24,1414.27z"/>
<path class="st0" d="M533.03,1745.8c4.53,0.51,8.86,0.72,13.09,1.51c22.28,4.16,38.38,24.15,37.82,46.75
	c-0.31,12.26-10.05,22.11-22.35,22.59c-1.22,0.05-2.44,0.03-3.66,0.03c-124.25,0-248.49,0.01-372.74-0.04
	c-3.45,0-7.04-0.12-10.34-1.03c-10.83-2.97-17.65-12.9-16.98-24.07c1.48-24.67,19.31-42.94,44.04-45.14
	c0.68-0.06,1.36-0.16,2.46-0.29c0.35-2.16,0.72-4.34,1.05-6.52c4.05-27.57,30.76-45.53,57.79-38.85c0.85,0.21,1.68,0.48,2.53,0.68
	c3.98,0.96,4.58,0.5,5.04-3.41c0.39-3.28,0.64-6.62,1.43-9.81c6.58-26.49,33.69-41.69,59.79-33.62c1,0.31,2,0.62,2.97,1.02
	c1.78,0.74,3.02,0.07,3.99-1.41c0.57-0.88,1.12-1.77,1.72-2.63c18.65-26.86,57.49-27.43,76.87-1.12c0.21,0.28,0.42,0.56,0.62,0.84
	c3.03,4.2,3.03,4.2,8.03,2.87c26.53-7.06,52.88,8.9,58.68,35.58c0.41,1.87,0.58,3.79,0.76,5.7c0.23,2.4,1.24,3.79,3.86,4.03
	c2.59,0.23,5.19,0.72,7.72,1.35c19.77,5,33.56,21.33,35.43,41.86C532.72,1743.67,532.89,1744.67,533.03,1745.8z"/>
</svg>
